Coordinates
version=1
nRows=4
nColumns=114
inDegrees=yes

Units are S.I. units (second, meters, Newtons, ...)
If the header above contains a line with 'inDegrees', this indicates whether rotational values are in degrees (yes) or radians (no).

endheader 
time	pelvis_tilt	pelvis_list	pelvis_rotation	pelvis_tx	pelvis_ty	pelvis_tz	hip_flexion_l	hip_adduction_l	hip_rotation_l	hip_flexion_r	hip_adduction_r	hip_rotation_r	knee_angle_l	knee_angle_r	ankle_angle_l	ankle_angle_r	subtalar_angle_l	subtalar_angle_r	mtp_angle_l	mtp_angle_r	lumbar_extension	lumbar_bending	lumbar_rotation	arm_flex_l	arm_add_l	arm_rot_l	arm_flex_r	arm_add_r	arm_rot_r	elbow_flex_l	elbow_flex_r	pro_sup_l	pro_sup_r	addbrev_l/activation	addlong_l/activation	addmagDist_l/activation	addmagIsch_l/activation	addmagMid_l/activation	addmagProx_l/activation	bflh_l/activation	bfsh_l/activation	edl_l/activation	ehl_l/activation	fdl_l/activation	fhl_l/activation	gaslat_l/activation	gasmed_l/activation	glmax1_l/activation	glmax2_l/activation	glmax3_l/activation	glmed1_l/activation	glmed2_l/activation	glmed3_l/activation	glmin1_l/activation	glmin2_l/activation	glmin3_l/activation	grac_l/activation	iliacus_l/activation	perbrev_l/activation	perlong_l/activation	piri_l/activation	psoas_l/activation	recfem_l/activation	sart_l/activation	semimem_l/activation	semiten_l/activation	soleus_l/activation	tfl_l/activation	tibant_l/activation	tibpost_l/activation	vasint_l/activation	vaslat_l/activation	vasmed_l/activation	addbrev_r/activation	addlong_r/activation	addmagDist_r/activation	addmagIsch_r/activation	addmagMid_r/activation	addmagProx_r/activation	bflh_r/activation	bfsh_r/activation	edl_r/activation	ehl_r/activation	fdl_r/activation	fhl_r/activation	gaslat_r/activation	gasmed_r/activation	glmax1_r/activation	glmax2_r/activation	glmax3_r/activation	glmed1_r/activation	glmed2_r/activation	glmed3_r/activation	glmin1_r/activation	glmin2_r/activation	glmin3_r/activation	grac_r/activation	iliacus_r/activation	perbrev_r/activation	perlong_r/activation	piri_r/activation	psoas_r/activation	recfem_r/activation	sart_r/activation	semimem_r/activation	semiten_r/activation	soleus_r/activation	tfl_r/activation	tibant_r/activation	tibpost_r/activation	vasint_r/activation	vaslat_r/activation	vasmed_r/activation	
          2.45000000	        -10.32487494	          4.27317570	        -34.34261241	          1.21125371	          0.86037907	          0.37826635	         34.39175431	        -13.84827624	         -2.74774537	         33.73622399	         -5.26520261	         -7.80339925	         53.17400997	         54.18616997	         28.24808671	         26.34827789	         -6.11571047	        -11.01189899	         -8.71790453	        -13.82296846	        -20.72550604	         -1.50874790	          2.75627930	          6.16035145	        -10.48081629	         -2.33542378	          3.96794554	        -12.25825493	          5.45080411	         22.88562700	         23.06476071	         74.87040517	         71.61671108	          0.02175663	          0.01980856	          0.04339828	          0.01782613	          0.04569093	          0.10268749	          0.11946256	          0.16336897	          0.12416332	          0.08540543	          0.03129864	          0.04585664	          0.08552433	          0.15670664	          0.01248240	          0.06834457	          0.09760219	          0.01201562	          0.01204435	          0.01205687	          0.01201989	          0.01200627	          0.01205657	          0.05719952	          0.03720227	          0.08992238	          0.04783427	          0.11031051	          0.18732194	          0.10804122	          0.21169964	          0.07787244	          0.32703905	          0.19569419	          0.01526096	          0.12643794	          0.07699893	          0.10776315	          0.12413572	          0.12639608	          0.01032731	          0.01022808	          0.01785276	          0.04337113	          0.01089008	          0.01028935	          0.12053817	          0.23078549	          0.06330020	          0.05252456	          0.01263145	          0.03766076	          0.12263265	          0.21927269	          0.09167847	          0.18324388	          0.08525994	          0.13583651	          0.10656643	          0.11534459	          0.02356417	          0.05421736	          0.07485436	          0.04094382	          0.11577574	          0.10572641	          0.14545831	          0.12433741	          0.17358574	          0.05530534	          0.29270551	          0.10634805	          0.41469925	          0.28689467	          0.06809146	          0.11089591	          0.01243569	          0.20293686	          0.23914726	          0.27225586	
          2.46000000	        -10.31961134	          4.28862876	        -34.29099304	          1.21131225	          0.86274592	          0.37783584	         34.00722785	        -13.75346397	         -2.87000508	         33.46047688	         -5.23044694	         -7.78785128	         52.36541027	         53.55831094	         27.78719005	         25.81405064	         -6.10162334	        -11.26912314	         -8.44916268	        -13.74687515	        -20.75315523	         -1.37018234	          2.57806320	          6.40434314	        -10.46652445	         -2.03329418	          4.04757472	        -12.18967854	          5.53743730	         23.10126218	         23.09938537	         74.85841044	         71.61524666	          0.02581729	          0.01668934	          0.03631014	          0.01490105	          0.05994462	          0.11891731	          0.10917900	          0.13615527	          0.10976748	          0.07124885	          0.02613023	          0.03825169	          0.08072395	          0.16038549	          0.01049940	          0.05699812	          0.18010124	          0.01004778	          0.01009419	          0.01013992	          0.01012863	          0.01015580	          0.01022747	          0.04781348	          0.03101531	          0.07977572	          0.05614983	          0.09534413	          0.15613162	          0.14137524	          0.17643217	          0.06489964	          0.27253660	          0.20284112	          0.01274126	          0.10538169	          0.06418263	          0.09694521	          0.14299042	          0.11724911	          0.01198851	          0.01190563	          0.01511104	          0.03619520	          0.01247041	          0.01241207	          0.10047282	          0.19233094	          0.05279642	          0.04380875	          0.01068412	          0.03142732	          0.11714029	          0.23592471	          0.07653060	          0.15276432	          0.07150670	          0.11321171	          0.08884099	          0.09618595	          0.01969651	          0.04523949	          0.06244167	          0.03414910	          0.09648800	          0.08990783	          0.12139353	          0.13385759	          0.14466187	          0.07105434	          0.24392884	          0.08863486	          0.34558614	          0.37154539	          0.05686364	          0.09242269	          0.01039754	          0.18520061	          0.28313385	          0.24488084	
          2.47000000	        -10.25845232	          4.27661158	        -34.25176534	          1.21169277	          0.86500252	          0.37754787	         33.52412371	        -13.62553795	         -2.99778851	         33.07009144	         -5.20241781	         -7.78055818	         51.53675110	         52.87427273	         27.27223708	         25.28728531	         -6.21633509	        -11.53601394	         -8.30904031	        -13.76399540	        -20.77742208	         -1.23650553	          2.41620200	          6.52964184	        -10.45945739	         -1.73918856	          3.99559428	        -12.14133643	          5.58050201	         23.37702319	         23.22443291	         74.80521941	         71.56370476	          0.02157076	          0.01393667	          0.03031110	          0.01245666	          0.05001888	          0.09920265	          0.09101043	          0.11347956	          0.09148501	          0.05939130	          0.02199907	          0.03211180	          0.08204992	          0.14823189	          0.01061416	          0.04768951	          0.15015832	          0.01003825	          0.01008467	          0.01018481	          0.01010019	          0.01015007	          0.01027896	          0.03991724	          0.02586160	          0.06650346	          0.04682161	          0.08899817	          0.13013430	          0.14394703	          0.14704769	          0.05410215	          0.22712616	          0.20718460	          0.01068796	          0.08782771	          0.05457337	          0.08088145	          0.17290033	          0.09782075	          0.01016273	          0.01008228	          0.01265662	          0.03019756	          0.01050033	          0.01064376	          0.08378461	          0.16028690	          0.04401383	          0.03653010	          0.01051125	          0.03029152	          0.10566772	          0.21231495	          0.09593735	          0.15326238	          0.05969569	          0.09436421	          0.07412285	          0.10853612	          0.01647214	          0.03779029	          0.05237331	          0.02848359	          0.08041496	          0.07498101	          0.10120100	          0.12074619	          0.12055856	          0.05933227	          0.20328301	          0.07387299	          0.28800363	          0.33262156	          0.04741326	          0.07702439	          0.01010043	          0.15438456	          0.30694623	          0.20411892	
          2.48000000	        -10.13134702	          4.22879161	        -34.21263740	          1.21231761	          0.86730447	          0.37732320	         32.93273549	        -13.45457044	         -3.09121784	         32.54387300	         -5.18489346	         -7.80212214	         50.66444787	         52.11094836	         26.73168513	         24.74417369	         -6.41295079	        -11.81794274	         -8.26186910	        -13.88180802	        -20.84811795	         -1.10263547	          2.25016578	          6.55965775	        -10.46595124	         -1.39067295	          3.85344381	        -12.12599435	          5.58791454	         23.72205094	         23.44090629	         74.63518052	         71.40668429	          0.01804301	          0.01165465	          0.02531666	          0.01043998	          0.04174977	          0.08277391	          0.07593162	          0.09458641	          0.09550420	          0.04954388	          0.02023253	          0.03515644	          0.08185491	          0.13819854	          0.01083586	          0.03984843	          0.12518633	          0.01004982	          0.01012215	          0.01035599	          0.01012733	          0.01022471	          0.01057379	          0.03334967	          0.02157461	          0.05543840	          0.03903300	          0.07429847	          0.10848404	          0.12005410	          0.12256509	          0.04509286	          0.18927893	          0.20058327	          0.01058240	          0.07321645	          0.06557796	          0.07791678	          0.17840545	          0.10541092	          0.01018820	          0.01011054	          0.01092689	          0.02533821	          0.01037489	          0.01048079	          0.07033043	          0.13358568	          0.03670992	          0.03048418	          0.01471868	          0.02541529	          0.11696985	          0.21770898	          0.10902430	          0.18120999	          0.05764361	          0.07870646	          0.06209342	          0.09401929	          0.01389881	          0.03173995	          0.04412910	          0.02377392	          0.06702152	          0.06252144	          0.08436839	          0.10094039	          0.10047270	          0.04945614	          0.16941205	          0.06165048	          0.24001036	          0.35999590	          0.03961799	          0.06419822	          0.01331586	          0.14310456	          0.29826889	          0.18652561	
